<svg width="32" height="32" viewBox="0 0 32 32" fill="none" xmlns="http://www.w3.org/2000/svg">
<path d="M22.3696 3.19995H9.62882C9.62882 3.19995 8.03522 3.19995 8.03522 4.79995H23.9632C23.9632 3.19995 22.3696 3.19995 22.3696 3.19995ZM27.1488 7.99995C27.1488 6.39995 25.5568 6.39995 25.5568 6.39995H6.44322C6.44322 6.39995 4.85122 6.39995 4.85122 7.99995V9.59995H27.1488V7.99995ZM30.3328 9.59995L29.392 8.65275V11.2H2.60802V8.65275L1.66562 9.59995C0.723216 10.5472 0.0480161 10.8 0.427216 12.8C0.804816 14.7936 2.63362 25.7216 2.90562 27.2C3.20322 28.8224 4.85282 28.8 4.85282 28.8H27.1504C27.1504 28.8 28.7984 28.8224 29.0976 27.2C29.3696 25.7216 31.1968 14.7936 31.576 12.8C31.952 10.8 31.2768 10.5472 30.3328 9.59995ZM22.4 19.1952C22.4 20.0816 21.6816 20.8 20.7952 20.8H11.2048C10.7792 20.8 10.371 20.6309 10.0701 20.3299C9.76909 20.029 9.60002 19.6208 9.60002 19.1952V16H11.2V19.2H20.8V16H22.4V19.1952Z" fill="white"/>
</svg>
