<svg width="40" height="39" viewBox="0 0 40 39" fill="none" xmlns="http://www.w3.org/2000/svg">
<path d="M17.083 3.25C13.6352 3.25 10.3286 4.61964 7.89062 7.05761C5.45265 9.49558 4.08301 12.8022 4.08301 16.25C4.08301 19.6978 5.45265 23.0044 7.89062 25.4424C10.3286 27.8804 13.6352 29.25 17.083 29.25C20.5308 29.25 23.8374 27.8804 26.2754 25.4424C28.7134 23.0044 30.083 19.6978 30.083 16.25C30.083 12.8022 28.7134 9.49558 26.2754 7.05761C23.8374 4.61964 20.5308 3.25 17.083 3.25Z" fill="#4F8978"/>
<path fill-rule="evenodd" clip-rule="evenodd" d="M36.1069 35.2739C35.8021 35.5786 35.3889 35.7497 34.958 35.7497C34.5271 35.7497 34.1139 35.5786 33.8091 35.2739L28.1216 29.5864C27.8256 29.2799 27.6618 28.8695 27.6655 28.4434C27.6692 28.0173 27.8401 27.6098 28.1414 27.3085C28.4427 27.0072 28.8503 26.8363 29.2763 26.8326C29.7024 26.8289 30.1129 26.9927 30.4194 27.2887L36.1069 32.9762C36.4115 33.2809 36.5827 33.6942 36.5827 34.1251C36.5827 34.5559 36.4115 34.9692 36.1069 35.2739Z" fill="#4F8978"/>
</svg>
