<svg width="28" height="21" viewBox="0 0 28 21" fill="none" xmlns="http://www.w3.org/2000/svg">
<path fill-rule="evenodd" clip-rule="evenodd" d="M26.5104 0.620151C26.8917 1.0169 27.1059 1.55494 27.1059 2.11594C27.1059 2.67695 26.8917 3.21499 26.5104 3.61174L11.2645 19.4696C11.063 19.6792 10.8238 19.8454 10.5605 19.9589C10.2973 20.0723 10.0151 20.1307 9.73012 20.1307C9.44516 20.1307 9.16298 20.0723 8.89972 19.9589C8.63645 19.8454 8.39725 19.6792 8.19577 19.4696L0.620971 11.5921C0.426699 11.397 0.271741 11.1635 0.165138 10.9054C0.0585356 10.6473 0.00242372 10.3696 7.67988e-05 10.0887C-0.00227012 9.8078 0.049195 9.5292 0.151469 9.26919C0.253743 9.00918 0.404777 8.77296 0.59576 8.57431C0.786742 8.37567 1.01385 8.21857 1.26382 8.11219C1.5138 8.00581 1.78164 7.95228 2.05172 7.95472C2.3218 7.95716 2.58871 8.01553 2.83687 8.12641C3.08504 8.23729 3.30948 8.39847 3.49712 8.60054L9.72944 15.083L23.6329 0.620151C23.8217 0.423547 24.046 0.267585 24.2929 0.161177C24.5398 0.0547688 24.8044 0 25.0716 0C25.3388 0 25.6034 0.0547688 25.8503 0.161177C26.0972 0.267585 26.3215 0.423547 26.5104 0.620151Z" fill="white"/>
</svg>
