<svg width="32" height="35" viewBox="0 0 32 35" fill="none" xmlns="http://www.w3.org/2000/svg">
<path d="M16 0C12.6767 0 9.4895 1.32018 7.13957 3.67011C4.78964 6.02004 3.46946 9.20723 3.46946 12.5305V18.8459C3.46972 19.1236 3.40537 19.3976 3.2815 19.6461L0.20794 25.7914C0.0578002 26.0917 -0.0130947 26.4253 0.00198929 26.7606C0.0170732 27.096 0.117635 27.4219 0.294124 27.7074C0.470612 27.993 0.717168 28.2286 1.01037 28.3921C1.30358 28.5555 1.6337 28.6413 1.96938 28.6412H30.0306C30.3663 28.6413 30.6964 28.5555 30.9896 28.3921C31.2828 28.2286 31.5294 27.993 31.7059 27.7074C31.8824 27.4219 31.9829 27.096 31.998 26.7606C32.0131 26.4253 31.9422 26.0917 31.7921 25.7914L28.7203 19.6461C28.5958 19.3977 28.5308 19.1238 28.5305 18.8459V12.5305C28.5305 9.20723 27.2104 6.02004 24.8604 3.67011C22.5105 1.32018 19.3233 0 16 0ZM16 34.0115C14.889 34.012 13.8051 33.668 12.8978 33.0268C11.9905 32.3856 11.3044 31.4788 10.9341 30.4313H21.0659C20.6956 31.4788 20.0095 32.3856 19.1022 33.0268C18.1949 33.668 17.111 34.012 16 34.0115Z" fill="#DD4D4D"/>
</svg>
