<svg width="32" height="33" viewBox="0 0 32 33" fill="none" xmlns="http://www.w3.org/2000/svg">
<path d="M1.23366 20.7779L2.07843 23.9348C3.06537 27.6195 3.56047 29.4626 4.67975 30.657C5.56317 31.5995 6.70605 32.2591 7.96408 32.5525C9.55886 32.925 11.402 32.4316 15.0883 31.4446C18.7713 30.4577 20.6145 29.9642 21.8089 28.8449C21.9081 28.7513 22.0039 28.6554 22.0965 28.5574C21.54 28.5072 20.9868 28.4254 20.4396 28.3123C19.3024 28.0868 17.9511 27.724 16.353 27.2959L16.1782 27.2485L16.1373 27.2387C14.3988 26.7714 12.9461 26.3825 11.786 25.9642C10.5654 25.523 9.45755 24.9789 8.51474 24.0966C7.21787 22.8815 6.31034 21.3093 5.90688 19.5786C5.61276 18.322 5.69773 17.09 5.92649 15.8138C6.14545 14.59 6.53761 13.1226 7.0082 11.3661L7.88238 8.10791L7.9118 7.99353C4.77452 8.83831 3.12255 9.33831 2.02124 10.3694C1.0776 11.2534 0.417397 12.3976 0.124173 13.657C-0.248378 15.2501 0.245089 17.0933 1.23366 20.7779Z" fill="white"/>
<path fill-rule="evenodd" clip-rule="evenodd" d="M30.7682 14.2403L29.9218 17.3971C28.9332 21.0818 28.4397 22.9249 27.3204 24.1194C26.4372 25.0625 25.2943 25.7226 24.0361 26.0165C23.8781 26.0535 23.7175 26.0818 23.5541 26.1014C22.059 26.2861 20.2338 25.7975 16.9135 24.9086C13.2289 23.92 11.3857 23.4266 10.1913 22.3073C9.24789 21.4237 8.58771 20.2801 8.29419 19.0213C7.92164 17.4266 8.4151 15.585 9.40367 11.9004L10.2484 8.7435L10.6471 7.26473C11.3906 4.5425 11.8906 3.04412 12.8498 2.01961C13.7332 1.07712 14.8761 0.417541 16.1341 0.124173C17.7289 -0.248378 19.572 0.245089 23.2583 1.23366C26.9413 2.22059 28.7845 2.71406 29.9789 3.83171C30.9226 4.71579 31.5828 5.85991 31.876 7.11931C32.2486 8.71409 31.7551 10.5556 30.7682 14.2403ZM14.7893 12.7533C14.831 12.5978 14.903 12.4521 15.001 12.3244C15.099 12.1968 15.2213 12.0896 15.3607 12.0092C15.5002 11.9288 15.6541 11.8766 15.8137 11.8557C15.9733 11.8348 16.1355 11.8455 16.291 11.8873L24.1832 14.0033C24.3427 14.0412 24.4931 14.1106 24.6253 14.2076C24.7575 14.3046 24.8689 14.4272 24.9529 14.568C25.0369 14.7089 25.0918 14.8652 25.1143 15.0276C25.1368 15.19 25.1265 15.3553 25.0839 15.5137C25.0414 15.6721 24.9675 15.8203 24.8666 15.9496C24.7657 16.0789 24.6399 16.1866 24.4967 16.2664C24.3534 16.3462 24.1956 16.3964 24.0325 16.4141C23.8695 16.4318 23.7046 16.4166 23.5475 16.3694L15.6553 14.255C15.3417 14.1707 15.0743 13.9654 14.9119 13.6842C14.7496 13.4029 14.7055 13.0671 14.7893 12.7533ZM13.5213 17.4903C13.6056 17.1766 13.8109 16.9093 14.0921 16.7469C14.3734 16.5845 14.7076 16.5404 15.0213 16.6243L19.7567 17.8939C19.917 17.9309 20.0682 17.9998 20.2013 18.0965C20.3345 18.1932 20.4468 18.3157 20.5315 18.4568C20.6163 18.5978 20.6717 18.7545 20.6946 18.9174C20.7175 19.0804 20.7074 19.2462 20.6648 19.4052C20.6222 19.5641 20.5481 19.7128 20.4468 19.8425C20.3454 19.9722 20.2191 20.0801 20.0752 20.1599C19.9312 20.2396 19.7727 20.2896 19.6091 20.3068C19.4455 20.324 19.28 20.308 19.1227 20.2599L14.3874 18.9919C14.2319 18.9502 14.0861 18.8783 13.9585 18.7802C13.8308 18.6822 13.7237 18.56 13.6433 18.4205C13.5628 18.2811 13.5107 18.1271 13.4898 17.9675C13.4688 17.8079 13.4796 17.6457 13.5213 17.4903Z" fill="white"/>
</svg>
