<svg width="28" height="25" viewBox="0 0 28 25" fill="none" xmlns="http://www.w3.org/2000/svg">
<path fill-rule="evenodd" clip-rule="evenodd" d="M26.5104 4.62015C26.8917 5.0169 27.1059 5.55494 27.1059 6.11594C27.1059 6.67695 26.8917 7.21499 26.5104 7.61174L11.2645 23.4696C11.063 23.6792 10.8238 23.8454 10.5605 23.9589C10.2973 24.0723 10.0151 24.1307 9.73012 24.1307C9.44516 24.1307 9.16298 24.0723 8.89972 23.9589C8.63645 23.8454 8.39725 23.6792 8.19577 23.4696L0.620971 15.5921C0.426699 15.397 0.271741 15.1635 0.165138 14.9054C0.0585356 14.6473 0.00242372 14.3696 7.67988e-05 14.0887C-0.00227012 13.8078 0.049195 13.5292 0.151469 13.2692C0.253743 13.0092 0.404777 12.773 0.59576 12.5743C0.786742 12.3757 1.01385 12.2186 1.26382 12.1122C1.5138 12.0058 1.78164 11.9523 2.05172 11.9547C2.3218 11.9572 2.58871 12.0155 2.83687 12.1264C3.08504 12.2373 3.30948 12.3985 3.49712 12.6005L9.72944 19.083L23.6329 4.62015C23.8217 4.42355 24.046 4.26759 24.2929 4.16118C24.5398 4.05477 24.8044 4 25.0716 4C25.3388 4 25.6034 4.05477 25.8503 4.16118C26.0972 4.26759 26.3215 4.42355 26.5104 4.62015Z" fill="white"/>
<path d="M9.57653 1.70401C10.21 0.568004 10.5265 0 11 0C11.4735 0 11.79 0.568004 12.4235 1.70401L12.5875 1.99801C12.7675 2.32101 12.8575 2.48252 12.9975 2.58902C13.1374 2.69552 13.3124 2.73502 13.6624 2.81402L13.9804 2.88602C15.2104 3.16452 15.8249 3.30352 15.9714 3.77402C16.1174 4.24403 15.6984 4.73453 14.8599 5.71504L14.6429 5.96854C14.4049 6.24704 14.2854 6.38654 14.2319 6.55854C14.1784 6.73104 14.1964 6.91704 14.2324 7.28855L14.2654 7.62705C14.3919 8.93556 14.4554 9.58956 14.0724 9.88006C13.6894 10.1706 13.1135 9.90556 11.9625 9.37556L11.664 9.23856C11.337 9.08756 11.1735 9.01256 11 9.01256C10.8265 9.01256 10.663 9.08756 10.336 9.23856L10.038 9.37556C8.88655 9.90556 8.31056 10.1706 7.92807 9.88056C7.54458 9.58956 7.60808 8.93556 7.73458 7.62705L7.76758 7.28905C7.80358 6.91704 7.82157 6.73104 7.76758 6.55904C7.71458 6.38654 7.59508 6.24704 7.35709 5.96904L7.14009 5.71504C6.30161 4.73503 5.88262 4.24453 6.02862 3.77402C6.17461 3.30352 6.7901 3.16402 8.02007 2.88602L8.33806 2.81402C8.68755 2.73502 8.86205 2.69552 9.00255 2.58902C9.14304 2.48252 9.23254 2.32101 9.41254 1.99801L9.57653 1.70401Z" fill="white"/>
</svg>
