<svg width="24" height="26" viewBox="0 0 24 26" fill="none" xmlns="http://www.w3.org/2000/svg">
<path fill-rule="evenodd" clip-rule="evenodd" d="M12.0841 25.1832L12.0709 25.1856L11.9856 25.2277L11.9616 25.2325L11.9448 25.2277L11.8596 25.1856C11.8468 25.1816 11.8372 25.1836 11.8307 25.1916L11.8259 25.2037L11.8055 25.7175L11.8115 25.7415L11.8235 25.7571L11.9484 25.846L11.9664 25.8508L11.9808 25.846L12.1057 25.7571L12.1201 25.7379L12.1249 25.7175L12.1045 25.2049C12.1013 25.192 12.0945 25.1848 12.0841 25.1832ZM12.4022 25.0476L12.3866 25.05L12.1645 25.1616L12.1525 25.1736L12.1489 25.1868L12.1705 25.7031L12.1765 25.7175L12.1861 25.7259L12.4274 25.8375C12.4426 25.8415 12.4542 25.8383 12.4622 25.8279L12.467 25.8111L12.4262 25.074C12.4222 25.0596 12.4142 25.0508 12.4022 25.0476ZM11.5438 25.05C11.5385 25.0468 11.5322 25.0457 11.5262 25.0471C11.5201 25.0484 11.5148 25.052 11.5114 25.0572L11.5042 25.074L11.4634 25.8111C11.4642 25.8255 11.471 25.8351 11.4838 25.8399L11.5018 25.8375L11.7431 25.7259L11.7551 25.7163L11.7599 25.7031L11.7803 25.1868L11.7767 25.1724L11.7647 25.1604L11.5438 25.05Z" fill="#4F8978"/>
<path fill-rule="evenodd" clip-rule="evenodd" d="M21.1342 1.05452C20.4587 0.37931 19.5428 0 18.5878 0C17.6327 0 16.7168 0.37931 16.0414 1.05452L15.1926 1.90451L21.1354 7.84724L21.9829 6.99845C22.3174 6.664 22.5828 6.26693 22.7638 5.82991C22.9449 5.3929 23.0381 4.92451 23.0381 4.45148C23.0381 3.97845 22.9449 3.51006 22.7638 3.07304C22.5828 2.63603 22.3174 2.23896 21.9829 1.90451L21.1342 1.05452ZM19.4366 9.54482L13.4938 3.60209L2.58081 14.5163C2.342 14.7552 2.17518 15.0564 2.09939 15.3855L0.864023 20.734C0.817993 20.9325 0.823273 21.1395 0.879365 21.3355C0.935458 21.5314 1.04052 21.7099 1.18464 21.854C1.32877 21.9981 1.50721 22.1032 1.70317 22.1593C1.89912 22.2154 2.10613 22.2207 2.30469 22.1746L7.65435 20.9405C7.98307 20.8645 8.28382 20.6977 8.52235 20.459L19.4366 9.54482Z" fill="#4F8978"/>
</svg>
