<svg width="93" height="93" viewBox="0 0 93 93" fill="none" xmlns="http://www.w3.org/2000/svg">
<mask id="mask0_36_1713" style="mask-type:luminance" maskUnits="userSpaceOnUse" x="5" y="5" width="83" height="83">
<path d="M46.5 85.25C51.5896 85.2563 56.6304 84.2569 61.3326 82.3091C66.0347 80.3613 70.3057 77.5036 73.9001 73.9002C77.5036 70.3058 80.3613 66.0348 82.309 61.3326C84.2568 56.6304 85.2563 51.5897 85.25 46.5C85.2563 41.4104 84.2568 36.3697 82.309 31.6675C80.3613 26.9653 77.5036 22.6943 73.9001 19.0999C70.3057 15.4965 66.0347 12.6388 61.3326 10.691C56.6304 8.74321 51.5896 7.74375 46.5 7.75003C41.4104 7.74375 36.3696 8.74321 31.6674 10.691C26.9653 12.6388 22.6943 15.4965 19.0999 19.0999C15.4964 22.6943 12.6387 26.9653 10.691 31.6675C8.74318 36.3697 7.74372 41.4104 7.75 46.5C7.74372 51.5897 8.74318 56.6304 10.691 61.3326C12.6387 66.0348 15.4964 70.3058 19.0999 73.9002C22.6943 77.5036 26.9653 80.3613 31.6674 82.3091C36.3696 84.2569 41.4104 85.2563 46.5 85.25Z" fill="white" stroke="white" stroke-width="5" stroke-linejoin="round"/>
<path d="M31 46.5L42.625 58.125L65.875 34.875" stroke="black" stroke-width="5" stroke-linecap="round" stroke-linejoin="round"/>
</mask>
<g mask="url(#mask0_36_1713)">
<path d="M0 0H93V93H0V0Z" fill="#4F8978"/>
</g>
</svg>
