<svg width="93" height="93" viewBox="0 0 93 93" fill="none" xmlns="http://www.w3.org/2000/svg">
<path d="M46.5 5.8125C57.291 5.8125 67.64 10.0992 75.2704 17.7296C82.9008 25.36 87.1875 35.709 87.1875 46.5C87.1875 57.291 82.9008 67.64 75.2704 75.2704C67.64 82.9008 57.291 87.1875 46.5 87.1875C35.709 87.1875 25.36 82.9008 17.7296 75.2704C10.0992 67.64 5.8125 57.291 5.8125 46.5C5.8125 35.709 10.0992 25.36 17.7296 17.7296C25.36 10.0992 35.709 5.8125 46.5 5.8125ZM46.5 23.25C45.762 23.2493 45.032 23.4026 44.3567 23.7C43.6813 23.9974 43.0754 24.4324 42.5776 24.9772C42.0798 25.522 41.7012 26.1647 41.4658 26.8641C41.2304 27.5635 41.1435 28.3043 41.2106 29.0392L43.3322 52.3241C43.4144 53.107 43.7836 53.8316 44.3686 54.3584C44.9536 54.8851 45.7128 55.1765 46.5 55.1765C47.2872 55.1765 48.0464 54.8851 48.6314 54.3584C49.2164 53.8316 49.5856 53.107 49.6678 52.3241L51.7836 29.0392C51.8506 28.3048 51.7639 27.5645 51.5289 26.8655C51.2938 26.1665 50.9157 25.5241 50.4186 24.9794C49.9214 24.4347 49.3162 23.9995 48.6415 23.7018C47.9668 23.404 47.2375 23.2501 46.5 23.25ZM46.5 69.75C47.7333 69.75 48.916 69.2601 49.788 68.388C50.6601 67.516 51.15 66.3333 51.15 65.1C51.15 63.8667 50.6601 62.684 49.788 61.812C48.916 60.9399 47.7333 60.45 46.5 60.45C45.2667 60.45 44.084 60.9399 43.212 61.812C42.3399 62.684 41.85 63.8667 41.85 65.1C41.85 66.3333 42.3399 67.516 43.212 68.388C44.084 69.2601 45.2667 69.75 46.5 69.75Z" fill="#4F8978"/>
</svg>
