<svg width="12" height="12" viewBox="0 0 12 12" fill="none" xmlns="http://www.w3.org/2000/svg">
<g clip-path="url(#clip0_84_4036)">
<path d="M9.5625 2.625H4.3125C3.86495 2.625 3.43573 2.80279 3.11926 3.11926C2.80279 3.43573 2.625 3.86495 2.625 4.3125V9.5625C2.625 10.0101 2.80279 10.4393 3.11926 10.7557C3.43573 11.0722 3.86495 11.25 4.3125 11.25H9.5625C10.0101 11.25 10.4393 11.0722 10.7557 10.7557C11.0722 10.4393 11.25 10.0101 11.25 9.5625V4.3125C11.25 3.86495 11.0722 3.43573 10.7557 3.11926C10.4393 2.80279 10.0101 2.625 9.5625 2.625ZM8.80195 7.3125H7.3125V8.80195C7.3125 9.00375 7.15734 9.17695 6.95555 9.18703C6.90484 9.18947 6.85417 9.1816 6.8066 9.16388C6.75903 9.14616 6.71556 9.11897 6.67881 9.08395C6.64206 9.04893 6.6128 9.00681 6.59281 8.96016C6.57282 8.9135 6.5625 8.86326 6.5625 8.8125V7.3125H5.07305C4.87125 7.3125 4.69805 7.15734 4.68797 6.95555C4.68553 6.90484 4.6934 6.85417 4.71112 6.8066C4.72884 6.75903 4.75603 6.71556 4.79105 6.67881C4.82607 6.64206 4.86819 6.6128 4.91484 6.59281C4.9615 6.57282 5.01174 6.5625 5.0625 6.5625H6.5625V5.07305C6.5625 4.87125 6.71766 4.69805 6.91945 4.68797C6.97016 4.68553 7.02083 4.6934 7.0684 4.71112C7.11597 4.72884 7.15944 4.75603 7.19619 4.79105C7.23294 4.82607 7.2622 4.86819 7.28219 4.91484C7.30218 4.9615 7.3125 5.01174 7.3125 5.0625V6.5625H8.8125C8.8633 6.56244 8.91359 6.5727 8.9603 6.59267C9.00702 6.61263 9.04919 6.64188 9.08426 6.67864C9.11932 6.71539 9.14656 6.75889 9.16431 6.80649C9.18205 6.85409 9.18994 6.9048 9.1875 6.95555C9.17766 7.15734 9.00375 7.3125 8.80195 7.3125Z" fill="white"/>
<path d="M9.27844 1.875C9.16176 1.54623 8.94622 1.26161 8.66138 1.06019C8.37654 0.858773 8.03636 0.750421 7.6875 0.75H2.4375C1.98995 0.75 1.56072 0.92779 1.24426 1.24426C0.92779 1.56072 0.75 1.98995 0.75 2.4375V7.6875C0.750421 8.03636 0.858773 8.37654 1.06019 8.66138C1.26161 8.94622 1.54623 9.16176 1.875 9.27844V3.75C1.875 3.25272 2.07254 2.77581 2.42417 2.42417C2.77581 2.07254 3.25272 1.875 3.75 1.875H9.27844Z" fill="white"/>
</g>
<defs>
<clipPath id="clip0_84_4036">
<rect width="12" height="12" fill="white"/>
</clipPath>
</defs>
</svg>
