<svg width="31" height="34" viewBox="0 0 31 34" fill="none" xmlns="http://www.w3.org/2000/svg">
<path d="M3.08331 12.75C3.08331 11.4012 3.0842 10.4359 3.17421 9.70204C3.26298 8.97831 3.43106 8.55604 3.70971 8.25042C3.98236 7.95138 4.34959 7.77604 4.9884 7.68179C5.64678 7.58465 6.51646 7.58337 7.74998 7.58337H23.25C24.4835 7.58337 25.3532 7.58465 26.0116 7.68179C26.6504 7.77604 27.0176 7.95138 27.2903 8.25042C27.5689 8.55604 27.737 8.97831 27.8258 9.70204C27.9158 10.4359 27.9166 11.4012 27.9166 12.75C27.9166 13.0965 27.9158 13.3108 27.8968 13.4665C27.8879 13.5391 27.8769 13.5798 27.8687 13.602C27.8645 13.6132 27.8613 13.619 27.8594 13.6218C27.8587 13.6222 27.8577 13.6226 27.8565 13.6232C27.8465 13.6276 27.8195 13.6375 27.7604 13.6462C27.6289 13.6654 27.4438 13.6667 27.125 13.6667H3.87498C3.55541 13.6667 3.37043 13.6654 3.23917 13.6462C3.18018 13.6375 3.15336 13.6277 3.14359 13.6233C3.14234 13.6228 3.14139 13.6223 3.1407 13.6219C3.14038 13.6215 3.14003 13.6209 3.13963 13.6202C3.13825 13.6179 3.13527 13.6124 3.1314 13.602C3.12306 13.5797 3.11209 13.5388 3.10321 13.466C3.08419 13.3101 3.08331 13.0958 3.08331 12.75ZM3.70971 29.9997C3.43106 29.694 3.26298 29.2718 3.17421 28.548C3.0842 27.8142 3.08331 26.8489 3.08331 25.5V18.4167C3.08331 18.071 3.08419 17.8566 3.10321 17.7008C3.11209 17.6279 3.12306 17.5871 3.1314 17.5647C3.13527 17.5543 3.13825 17.5489 3.13963 17.5465C3.14003 17.5459 3.14038 17.5453 3.1407 17.5448C3.14139 17.5445 3.14234 17.544 3.14359 17.5434C3.15336 17.5391 3.18018 17.5293 3.23917 17.5206C3.37043 17.5013 3.55541 17.5 3.87498 17.5H27.125C27.4438 17.5 27.6289 17.5013 27.7604 17.5206C27.8195 17.5293 27.8465 17.5391 27.8565 17.5436C27.8577 17.5441 27.8587 17.5446 27.8594 17.5449C27.8613 17.5478 27.8645 17.5536 27.8687 17.5648C27.8769 17.587 27.8879 17.6276 27.8968 17.7003C27.9158 17.8559 27.9166 18.0702 27.9166 18.4167V25.5C27.9166 26.8489 27.9158 27.8142 27.8258 28.548C27.737 29.2718 27.5689 29.694 27.2903 29.9997C27.0176 30.2987 26.6504 30.474 26.0116 30.5683C25.3532 30.6654 24.4835 30.6667 23.25 30.6667H7.74998C6.51646 30.6667 5.64678 30.6654 4.9884 30.5683C4.34959 30.474 3.98236 30.2987 3.70971 29.9997Z" fill="#4F8978" stroke="#4F8978"/>
<path d="M9.04163 4.25V8.5V4.25ZM21.9583 4.25V8.5V4.25Z" fill="#4F8978"/>
<path d="M9.04163 4.25V8.5M21.9583 4.25V8.5" stroke="#4F8978" stroke-width="2" stroke-linecap="round"/>
</svg>
