<svg width="55" height="55" viewBox="0 0 55 55" fill="none" xmlns="http://www.w3.org/2000/svg">
<path d="M9.16668 50.4167C7.90626 50.4167 6.82765 49.9683 5.93084 49.0715C5.03404 48.1747 4.58487 47.0953 4.58334 45.8333V9.16667C4.58334 7.90625 5.03251 6.82764 5.93084 5.93083C6.82918 5.03403 7.90779 4.58486 9.16668 4.58333H27.8438L23.2604 9.16667H9.16668V45.8333H34.375V41.25H38.9583V45.8333C38.9583 47.0938 38.5099 48.1731 37.6131 49.0715C36.7163 49.9698 35.637 50.4182 34.375 50.4167H9.16668ZM13.75 41.25V36.6667H29.7917V41.25H13.75ZM13.75 34.375V29.7917H25.2083V34.375H13.75ZM34.375 34.375L25.2083 25.2083H18.3333V13.75H25.2083L34.375 4.58333V34.375ZM38.9583 27.3854V11.5729C40.3333 12.375 41.441 13.4635 42.2813 14.8385C43.1215 16.2135 43.5417 17.7604 43.5417 19.4792C43.5417 21.1979 43.1215 22.7448 42.2813 24.1198C41.441 25.4948 40.3333 26.5833 38.9583 27.3854ZM38.9583 37.2396V32.4271C41.632 31.4722 43.8281 29.8207 45.5469 27.4725C47.2656 25.1243 48.125 22.4599 48.125 19.4792C48.125 16.4985 47.2656 13.834 45.5469 11.4858C43.8281 9.13764 41.632 7.48611 38.9583 6.53125V1.71875C42.9306 2.75 46.2153 4.89882 48.8125 8.16521C51.4097 11.4316 52.7083 15.2029 52.7083 19.4792C52.7083 23.7554 51.4097 27.5275 48.8125 30.7954C46.2153 34.0633 42.9306 36.2114 38.9583 37.2396Z" fill="#4F8978"/>
</svg>
