<svg width="30" height="29" viewBox="0 0 30 29" fill="none" xmlns="http://www.w3.org/2000/svg">
<path fill-rule="evenodd" clip-rule="evenodd" d="M14.606 17.064L21.0138 23.4718C21.3538 23.8118 21.8149 24.0029 22.2958 24.0029C22.7767 24.0029 23.2378 23.8118 23.5778 23.4718C23.9179 23.1318 24.1089 22.6706 24.1089 22.1898C24.1089 21.7089 23.9179 21.2478 23.5778 20.9077L17.1676 14.5L23.5766 8.09216C23.7449 7.9238 23.8784 7.72394 23.9694 7.504C24.0605 7.28406 24.1073 7.04833 24.1072 6.81029C24.1072 6.57225 24.0602 6.33655 23.9691 6.11665C23.8779 5.89675 23.7444 5.69696 23.576 5.52868C23.4077 5.3604 23.2078 5.22693 22.9879 5.13588C22.7679 5.04484 22.5322 4.99801 22.2942 4.99807C22.0561 4.99812 21.8204 5.04506 21.6005 5.13621C21.3806 5.22736 21.1808 5.36092 21.0125 5.52928L14.606 11.9371L8.19817 5.52928C8.03105 5.35609 7.83112 5.21792 7.61003 5.12283C7.38894 5.02773 7.15113 4.97762 6.91047 4.97542C6.66981 4.97321 6.43112 5.01896 6.20833 5.10999C5.98554 5.20102 5.7831 5.33551 5.61284 5.50561C5.44258 5.67571 5.30791 5.87801 5.21667 6.10072C5.12543 6.32342 5.07946 6.56207 5.08143 6.80273C5.08341 7.04339 5.1333 7.28125 5.22818 7.50243C5.32307 7.72361 5.46105 7.92367 5.63408 8.09095L12.0443 14.5L5.63529 20.909C5.46226 21.0762 5.32428 21.2763 5.22939 21.4975C5.1345 21.7186 5.08462 21.9565 5.08264 22.1972C5.08066 22.4378 5.12664 22.6765 5.21787 22.8992C5.30911 23.1219 5.44379 23.3242 5.61405 23.4943C5.78431 23.6644 5.98674 23.7989 6.20954 23.8899C6.43233 23.9809 6.67102 24.0267 6.91168 24.0245C7.15234 24.0223 7.39015 23.9722 7.61124 23.8771C7.83232 23.782 8.03226 23.6438 8.19937 23.4706L14.606 17.064Z" fill="white"/>
</svg>
