<svg width="30" height="29" viewBox="0 0 30 29" fill="none" xmlns="http://www.w3.org/2000/svg">
<path d="M13.5815 24.1667C13.5815 24.6474 13.7725 25.1084 14.1124 25.4483C14.4523 25.7882 14.9133 25.9792 15.394 25.9792C15.8748 25.9792 16.3358 25.7882 16.6757 25.4483C17.0156 25.1084 17.2065 24.6474 17.2065 24.1667V16.3125H25.0607C25.5414 16.3125 26.0024 16.1216 26.3423 15.7817C26.6823 15.4418 26.8732 14.9807 26.8732 14.5C26.8732 14.0193 26.6823 13.5583 26.3423 13.2184C26.0024 12.8785 25.5414 12.6875 25.0607 12.6875H17.2065V4.83337C17.2065 4.35267 17.0156 3.89165 16.6757 3.55174C16.3358 3.21183 15.8748 3.02087 15.394 3.02087C14.9133 3.02087 14.4523 3.21183 14.1124 3.55174C13.7725 3.89165 13.5815 4.35267 13.5815 4.83337V12.6875H5.72738C5.24667 12.6875 4.78566 12.8785 4.44575 13.2184C4.10584 13.5583 3.91488 14.0193 3.91488 14.5C3.91488 14.9807 4.10584 15.4418 4.44575 15.7817C4.78566 16.1216 5.24667 16.3125 5.72738 16.3125H13.5815V24.1667Z" fill="white"/>
</svg>
