<svg width="41" height="41" viewBox="0 0 41 41" fill="none" xmlns="http://www.w3.org/2000/svg">
<path d="M5.55206 19.6459C5.55226 17.3811 6.09823 15.1498 7.14375 13.1408C8.18926 11.1318 9.70352 9.40436 11.5583 8.10475C13.4131 6.80515 15.5537 5.97167 17.7989 5.67488C20.0441 5.3781 22.3278 5.62677 24.4566 6.39982C26.5853 7.17287 28.4964 8.44753 30.028 10.1159C31.5596 11.7842 32.6666 13.7971 33.2552 15.984C33.8438 18.1709 33.8968 20.4675 33.4095 22.6792C32.9223 24.8909 31.9092 26.9527 30.4561 28.6898L35.0259 33.2613C35.2523 33.5042 35.3755 33.8254 35.3696 34.1574C35.3638 34.4893 35.2293 34.806 34.9945 35.0407C34.7598 35.2755 34.4431 35.41 34.1112 35.4158C33.7792 35.4217 33.458 35.2985 33.2151 35.0721L28.6402 30.4972C26.5802 32.2048 24.0767 33.2907 21.4224 33.628C18.768 33.9653 16.0725 33.54 13.6509 32.4018C11.2293 31.2637 9.18179 29.4598 7.74762 27.2009C6.31345 24.942 5.55192 22.3216 5.55206 19.6459ZM18.4158 16.6051C18.1729 16.3787 17.8517 16.2555 17.5198 16.2614C17.1878 16.2672 16.8711 16.4017 16.6364 16.6364C16.4016 16.8712 16.2672 17.1879 16.2613 17.5198C16.2554 17.8518 16.3787 18.173 16.605 18.4159L18.2621 20.073L16.605 21.7301C16.4791 21.8473 16.3781 21.9888 16.3081 22.146C16.2381 22.3031 16.2004 22.4728 16.1974 22.6448C16.1944 22.8169 16.226 22.9877 16.2904 23.1473C16.3549 23.3068 16.4508 23.4517 16.5725 23.5734C16.6941 23.6951 16.839 23.791 16.9986 23.8554C17.1581 23.9199 17.329 23.9515 17.501 23.9485C17.6731 23.9454 17.8427 23.9078 17.9999 23.8378C18.1571 23.7677 18.2985 23.6668 18.4158 23.5409L20.0729 21.8838L21.73 23.5409C21.8473 23.6668 21.9887 23.7677 22.1459 23.8378C22.3031 23.9078 22.4727 23.9454 22.6448 23.9485C22.8168 23.9515 22.9877 23.9199 23.1472 23.8554C23.3067 23.791 23.4517 23.6951 23.5733 23.5734C23.695 23.4517 23.7909 23.3068 23.8554 23.1473C23.9198 22.9877 23.9514 22.8169 23.9484 22.6448C23.9454 22.4728 23.9077 22.3031 23.8377 22.146C23.7677 21.9888 23.6667 21.8473 23.5408 21.7301L21.8837 20.073L23.5408 18.4159C23.6667 18.2986 23.7677 18.1571 23.8377 18C23.9077 17.8428 23.9454 17.6731 23.9484 17.5011C23.9514 17.3291 23.9198 17.1582 23.8554 16.9987C23.7909 16.8391 23.695 16.6942 23.5733 16.5725C23.4517 16.4509 23.3067 16.3549 23.1472 16.2905C22.9877 16.2261 22.8168 16.1944 22.6448 16.1975C22.4727 16.2005 22.3031 16.2381 22.1459 16.3082C21.9887 16.3782 21.8473 16.4792 21.73 16.6051L20.0729 18.2621L18.4158 16.6051Z" fill="#4F8978"/>
</svg>
