<svg width="30" height="29" viewBox="0 0 30 29" fill="none" xmlns="http://www.w3.org/2000/svg">
<path fill-rule="evenodd" clip-rule="evenodd" d="M4.57317 14.1076C4.57317 19.9926 8.84004 24.0024 13.6328 24.8318C13.7631 24.8544 13.8878 24.9024 13.9996 24.9732C14.1114 25.044 14.2082 25.1361 14.2844 25.2442C14.3606 25.3524 14.4147 25.4745 14.4437 25.6036C14.4728 25.7327 14.4761 25.8662 14.4535 25.9966C14.4309 26.127 14.3828 26.2516 14.3121 26.3634C14.2413 26.4752 14.1492 26.572 14.041 26.6482C13.9329 26.7244 13.8107 26.7786 13.6817 26.8076C13.5526 26.8366 13.419 26.8399 13.2886 26.8173C7.66071 25.8429 2.55864 21.0985 2.55864 14.1076C2.55864 11.136 3.91004 8.80057 5.48764 7.02577C6.61864 5.75364 7.91204 4.71931 8.95217 3.92857H5.78924C5.53286 3.92857 5.28699 3.82673 5.1057 3.64544C4.92442 3.46416 4.82257 3.21828 4.82257 2.96191C4.82257 2.70553 4.92442 2.45965 5.1057 2.27837C5.28699 2.09708 5.53286 1.99524 5.78924 1.99524H11.5892C11.8456 1.99524 12.0915 2.09708 12.2728 2.27837C12.4541 2.45965 12.5559 2.70553 12.5559 2.96191V8.76191C12.5559 9.01828 12.4541 9.26416 12.2728 9.44544C12.0915 9.62673 11.8456 9.72857 11.5892 9.72857C11.3329 9.72857 11.087 9.62673 10.9057 9.44544C10.7244 9.26416 10.6226 9.01828 10.6226 8.76191V5.19297L10.6206 5.19684C9.51477 6.02817 8.16531 7.04704 6.99564 8.36364C5.61331 9.91804 4.57317 11.7992 4.57317 14.1076ZM26.0486 14.8906C26.0486 9.06737 21.8726 5.08277 17.1418 4.19344C17.0099 4.17107 16.8838 4.12266 16.7709 4.05104C16.6579 3.97943 16.5604 3.88603 16.4839 3.77631C16.4074 3.66659 16.3536 3.54274 16.3255 3.41199C16.2974 3.28123 16.2956 3.14619 16.3203 3.01474C16.3449 2.88329 16.3955 2.75806 16.469 2.64637C16.5426 2.53467 16.6377 2.43874 16.7487 2.36418C16.8597 2.28961 16.9845 2.23791 17.1157 2.21207C17.2469 2.18624 17.382 2.18679 17.513 2.21371C23.0694 3.25771 28.0632 7.97504 28.0632 14.8906C28.0632 17.8621 26.7118 20.1956 25.1342 21.9724C24.0032 23.2445 22.7098 24.2788 21.6696 25.0696H24.8326C25.0889 25.0696 25.3348 25.1714 25.5161 25.3527C25.6974 25.534 25.7992 25.7799 25.7992 26.0362C25.7992 26.2926 25.6974 26.5385 25.5161 26.7198C25.3348 26.9011 25.0889 27.0029 24.8326 27.0029H19.0326C18.7762 27.0029 18.5303 26.9011 18.349 26.7198C18.1677 26.5385 18.0659 26.2926 18.0659 26.0362V20.2362C18.0659 19.9799 18.1677 19.734 18.349 19.5527C18.5303 19.3714 18.7762 19.2696 19.0326 19.2696C19.2889 19.2696 19.5348 19.3714 19.7161 19.5527C19.8974 19.734 19.9992 19.9799 19.9992 20.2362V23.8032H20.0031C21.107 22.968 22.4584 21.9511 23.6262 20.6326C25.0085 19.0801 26.0486 17.2009 26.0486 14.8906Z" fill="white"/>
</svg>
