<svg width="30" height="32" viewBox="0 0 30 32" fill="none" xmlns="http://www.w3.org/2000/svg">
<path d="M22.7027 9.43541C22.7027 7.0101 22.1676 4.67504 20.9076 2.91267C19.6103 1.09615 17.6157 0 15 0C12.3843 0 10.3914 1.09615 9.09243 2.91267C7.83243 4.67504 7.2973 7.0101 7.2973 9.43541V11.4866H6.35676C5.48919 11.4866 4.76757 11.4866 4.17568 11.5358C3.55946 11.5867 2.98216 11.6966 2.43568 11.9789C1.5964 12.4115 0.91406 13.102 0.486486 13.9513C0.207567 14.5043 0.0972973 15.0901 0.0486486 15.7137C-4.53076e-08 16.311 0 17.0428 0 17.9191V25.5659C0 26.4438 -4.53076e-08 27.174 0.0486486 27.7729C0.0972973 28.3965 0.207567 28.9823 0.486486 29.5353C0.91406 30.3846 1.5964 31.0751 2.43568 31.5077C2.98216 31.79 3.55946 31.8999 4.17568 31.9508C4.76757 32 5.48919 32 6.35676 32H23.6432C24.5108 32 25.2324 32 25.8243 31.9508C26.4405 31.8999 27.0178 31.79 27.5643 31.5077C28.4036 31.0751 29.0859 30.3846 29.5135 29.5353C29.7924 28.9823 29.9027 28.3965 29.9513 27.7729C30 27.1756 30 26.4438 30 25.5675V17.9191C30 17.0428 30 16.311 29.9513 15.7137C29.9027 15.0901 29.7924 14.5043 29.5135 13.9513C29.0868 13.1025 28.4056 12.4121 27.5676 11.9789C27.0195 11.6966 26.4422 11.5867 25.8259 11.5358C25.2341 11.4866 24.5124 11.4866 23.6449 11.4866H22.7043L22.7027 9.43541ZM9.72973 9.43541C9.72973 7.33009 10.2 5.56279 11.0627 4.35506C11.8897 3.20148 13.1384 2.46141 15 2.46141C16.8616 2.46141 18.1119 3.19984 18.9373 4.35506C19.8 5.56279 20.2703 7.33009 20.2703 9.43541V11.4866H9.72973V9.43541ZM16.2162 21.3322V22.1527C16.2162 22.4791 16.0881 22.7922 15.86 23.023C15.6319 23.2538 15.3226 23.3834 15 23.3834C14.6774 23.3834 14.3681 23.2538 14.14 23.023C13.9119 22.7922 13.7838 22.4791 13.7838 22.1527V21.3322C13.7838 21.0058 13.9119 20.6928 14.14 20.462C14.3681 20.2312 14.6774 20.1015 15 20.1015C15.3226 20.1015 15.6319 20.2312 15.86 20.462C16.0881 20.6928 16.2162 21.0058 16.2162 21.3322ZM21.4865 20.1015C21.809 20.1015 22.1184 20.2312 22.3465 20.462C22.5746 20.6928 22.7027 21.0058 22.7027 21.3322V22.1527C22.7027 22.4791 22.5746 22.7922 22.3465 23.023C22.1184 23.2538 21.809 23.3834 21.4865 23.3834C21.1639 23.3834 20.8546 23.2538 20.6265 23.023C20.3984 22.7922 20.2703 22.4791 20.2703 22.1527V21.3322C20.2703 21.0058 20.3984 20.6928 20.6265 20.462C20.8546 20.2312 21.1639 20.1015 21.4865 20.1015ZM9.72973 21.3322V22.1527C9.72973 22.4791 9.60159 22.7922 9.37351 23.023C9.14542 23.2538 8.83607 23.3834 8.51351 23.3834C8.19095 23.3834 7.8816 23.2538 7.65352 23.023C7.42543 22.7922 7.2973 22.4791 7.2973 22.1527V21.3322C7.2973 21.0058 7.42543 20.6928 7.65352 20.462C7.8816 20.2312 8.19095 20.1015 8.51351 20.1015C8.83607 20.1015 9.14542 20.2312 9.37351 20.462C9.60159 20.6928 9.72973 21.0058 9.72973 21.3322Z" fill="#4F8978"/>
</svg>
