<svg width="32" height="26" viewBox="0 0 32 26" fill="none" xmlns="http://www.w3.org/2000/svg">
<path d="M19.2 14.625H27.2V11.375H19.2V14.625ZM19.2 9.75H27.2V6.5H19.2V9.75ZM4.8 19.5H17.6V18.6062C17.6 17.3875 17.0133 16.4195 15.84 15.7024C14.6667 14.9852 13.12 14.6261 11.2 14.625C9.28 14.6239 7.73333 14.983 6.56 15.7024C5.38667 16.4217 4.8 17.3897 4.8 18.6062V19.5ZM11.2 13C12.08 13 12.8336 12.682 13.4608 12.0461C14.088 11.4102 14.4011 10.6448 14.4 9.75C14.3989 8.85517 14.0859 8.09033 13.4608 7.4555C12.8357 6.82067 12.0821 6.50217 11.2 6.5C10.3179 6.49783 9.5648 6.81633 8.9408 7.4555C8.3168 8.09467 8.0032 8.8595 8 9.75C7.9968 10.6405 8.3104 11.4059 8.9408 12.0461C9.5712 12.6864 10.3243 13.0043 11.2 13ZM3.2 26C2.32 26 1.56693 25.682 0.9408 25.0461C0.314667 24.4102 0.00106667 23.6448 0 22.75V3.25C0 2.35625 0.3136 1.59142 0.9408 0.9555C1.568 0.319583 2.32107 0.00108333 3.2 0H28.8C29.68 0 30.4336 0.3185 31.0608 0.9555C31.688 1.5925 32.0011 2.35733 32 3.25V22.75C32 23.6437 31.6869 24.4091 31.0608 25.0461C30.4347 25.6831 29.6811 26.0011 28.8 26H3.2Z" fill="white"/>
</svg>
