<svg width="61" height="34" viewBox="0 0 61 34" fill="none" xmlns="http://www.w3.org/2000/svg">
<path d="M43.1631 0H16.9131C7.6084 0 0.0380859 7.62639 0.0380859 17C0.0380859 26.3736 7.6084 34 16.9131 34H43.1631C52.4678 34 60.0381 26.3736 60.0381 17C60.0381 7.62639 52.4678 0 43.1631 0ZM43.1631 30.2222C40.5672 30.2222 38.0296 29.4468 35.8712 27.9939C33.7128 26.541 32.0306 24.476 31.0372 22.0599C30.0438 19.6439 29.7838 16.9853 30.2903 14.4205C30.7967 11.8556 32.0467 9.49964 33.8823 7.65048C35.7179 5.80132 38.0565 4.54202 40.6025 4.03184C43.1485 3.52166 45.7875 3.7835 48.1858 4.78426C50.5841 5.78502 52.6339 7.47974 54.0761 9.65413C55.5183 11.8285 56.2881 14.3849 56.2881 17C56.2844 20.5056 54.9004 23.8665 52.4398 26.3454C49.9791 28.8242 46.6429 30.2185 43.1631 30.2222Z" fill="#44D764"/>
</svg>
