<svg width="26" height="26" viewBox="0 0 26 26" fill="none" xmlns="http://www.w3.org/2000/svg">
<path d="M19.375 1.73069C21.3232 2.85555 22.9438 4.46971 24.0764 6.41337C25.2091 8.35704 25.8144 10.5628 25.8326 12.8123C25.8508 15.0619 25.2811 17.2771 24.18 19.2388C23.0789 21.2006 21.4846 22.8407 19.5549 23.9969C17.6251 25.153 15.4268 25.7852 13.1777 25.8307C10.9286 25.8762 8.70654 25.3335 6.73159 24.2564C4.75664 23.1792 3.09725 21.605 1.91769 19.6894C0.738139 17.7738 0.0793203 15.5834 0.00645848 13.335L0 12.9165L0.00645848 12.498C0.0787958 10.2673 0.727916 8.09339 1.89053 6.18823C3.05315 4.28306 4.68959 2.71165 6.64032 1.62721C8.59104 0.542765 10.7895 -0.0177098 13.0213 0.000426567C15.2531 0.0185629 17.4422 0.614691 19.375 1.73069ZM12.9167 5.16653C12.6003 5.16657 12.2949 5.28272 12.0585 5.49295C11.8221 5.70318 11.6711 5.99287 11.634 6.30707L11.625 6.45819V12.9165L11.6366 13.0857C11.6661 13.3098 11.7538 13.5223 11.8911 13.7019L12.0035 13.831L15.8785 17.706L15.9999 17.8119C16.2264 17.9877 16.505 18.0831 16.7917 18.0831C17.0784 18.0831 17.3569 17.9877 17.5835 17.8119L17.7049 17.7047L17.8121 17.5833C17.9878 17.3568 18.0832 17.0782 18.0832 16.7915C18.0832 16.5048 17.9878 16.2263 17.8121 15.9997L17.7049 15.8783L14.2083 12.3805V6.45819L14.1993 6.30707C14.1623 5.99287 14.0112 5.70318 13.7748 5.49295C13.5384 5.28272 13.233 5.16657 12.9167 5.16653Z" fill="#4F8978"/>
</svg>
