<svg width="32" height="25" viewBox="0 0 32 25" fill="none" xmlns="http://www.w3.org/2000/svg">
<path d="M10.2854 3.97727L10.2854 11.3636L20.6427 11.3636C20.9458 11.3636 21.2365 11.4834 21.4508 11.6965C21.6651 11.9096 21.7855 12.1986 21.7855 12.5C21.7855 12.8014 21.6651 13.0904 21.4508 13.3035C21.2365 13.5166 20.9458 13.6364 20.6427 13.6364L10.2854 13.6364L10.2854 21.0227C10.2865 22.0772 10.7083 23.0882 11.4582 23.8338C12.2081 24.5795 13.2249 24.9989 14.2854 25L27.9999 25C29.0605 24.9989 30.0772 24.5795 30.8272 23.8338C31.5771 23.0882 31.9989 22.0772 32 21.0227L32 3.97728C31.9989 2.92278 31.5771 1.9118 30.8272 1.16616C30.0772 0.420524 29.0605 0.0011308 27.9999 3.465e-06L14.2854 2.26604e-06C13.2249 0.00112942 12.2081 0.420523 11.4582 1.16616C10.7083 1.9118 10.2865 2.92278 10.2854 3.97727ZM3.90168 11.3636L7.6646 7.62145C7.86988 7.4066 7.98264 7.12053 7.97882 6.82421C7.975 6.52789 7.85492 6.24477 7.64417 6.03522C7.43342 5.82568 7.14869 5.70628 6.85067 5.70248C6.55265 5.69869 6.26493 5.8108 6.04886 6.01492L0.334474 11.6967C0.120305 11.9098 -2.69558e-06 12.1987 -2.72191e-06 12.5C-2.74825e-06 12.8013 0.120305 13.0902 0.334474 13.3033L6.04886 18.9851C6.26493 19.1892 6.55265 19.3013 6.85067 19.2975C7.14869 19.2937 7.43342 19.1743 7.64417 18.9648C7.85492 18.7552 7.975 18.4721 7.97882 18.1758C7.98263 17.8795 7.86988 17.5934 7.6646 17.3785L3.90168 13.6364L10.2854 13.6364L10.2854 11.3636L3.90168 11.3636Z" fill="white"/>
</svg>
