<svg width="32" height="32" viewBox="0 0 32 32" fill="none" xmlns="http://www.w3.org/2000/svg">
<path fill-rule="evenodd" clip-rule="evenodd" d="M2.3424 2.3424C0 4.688 0 8.4576 0 16C0 23.5424 0 27.3136 2.3424 29.656C4.688 32 8.4576 32 16 32C23.5424 32 27.3136 32 29.656 29.656C32 27.3152 32 23.5424 32 16C32 8.4576 32 4.6864 29.656 2.3424C27.3152 0 23.5424 0 16 0C8.4576 0 4.6864 0 2.3424 2.3424ZM24.9216 13.568C25.1163 13.3226 25.2073 13.0108 25.1752 12.6991C25.1431 12.3875 24.9904 12.1008 24.7498 11.9003C24.5091 11.6997 24.1996 11.6012 23.8873 11.6258C23.575 11.6505 23.2847 11.7962 23.0784 12.032L20.2032 15.4816C19.6112 16.1936 19.2448 16.6272 18.9456 16.8976C18.8673 16.9735 18.7797 17.0391 18.6848 17.0928L18.6672 17.1008L18.6544 17.0944L18.6496 17.0928C18.5541 17.0392 18.466 16.9736 18.3872 16.8976C18.088 16.6256 17.7232 16.1936 17.1296 15.4816L16.6624 14.9216C16.1376 14.2896 15.6624 13.7216 15.2208 13.3216C14.7392 12.8864 14.1328 12.4992 13.3328 12.4992C12.5328 12.4992 11.928 12.8864 11.4448 13.3216C11.0032 13.7216 10.5296 14.2896 10.0048 14.9216L7.0768 18.432C6.97594 18.5531 6.89994 18.6929 6.85311 18.8434C6.80629 18.994 6.78957 19.1522 6.80391 19.3092C6.83286 19.6262 6.98656 19.9187 7.2312 20.1224C7.47584 20.3261 7.79137 20.4242 8.10838 20.3953C8.42539 20.3663 8.71791 20.2126 8.9216 19.968L11.7968 16.5184C12.3888 15.8064 12.7552 15.3728 13.0544 15.1024C13.1327 15.0265 13.2203 14.9609 13.3152 14.9072L13.3264 14.9024L13.3328 14.8992L13.3504 14.9072C13.4459 14.9608 13.534 15.0264 13.6128 15.1024C13.912 15.3744 14.2768 15.8064 14.8704 16.5184L15.3376 17.0784C15.864 17.7104 16.3376 18.2784 16.7792 18.6784C17.2608 19.1136 17.8672 19.5008 18.6672 19.5008C19.4672 19.5008 20.072 19.1136 20.5552 18.6784C20.9968 18.2784 21.4704 17.7104 21.9952 17.0784L24.9216 13.568Z" fill="white"/>
</svg>
