<svg width="61" height="34" viewBox="0 0 61 34" fill="none" xmlns="http://www.w3.org/2000/svg">
<path d="M16.9131 34L43.1631 34C52.4678 34 60.0381 26.3736 60.0381 17C60.0381 7.62639 52.4678 -6.61818e-07 43.1631 -1.47526e-06L16.9131 -3.77011e-06C7.6084 -4.58355e-06 0.0380882 7.62638 0.0380874 17C0.0380866 26.3736 7.6084 34 16.9131 34ZM16.9131 3.77777C19.509 3.77778 22.0466 4.55324 24.205 6.00612C26.3633 7.459 28.0456 9.52403 29.039 11.9401C30.0324 14.3561 30.2923 17.0147 29.7859 19.5795C29.2795 22.1444 28.0294 24.5004 26.1939 26.3495C24.3583 28.1987 22.0196 29.458 19.4736 29.9682C16.9276 30.4783 14.2886 30.2165 11.8904 29.2157C9.49209 28.215 7.44224 26.5203 6.00005 24.3459C4.55785 22.1715 3.78809 19.6151 3.78809 17C3.79181 13.4944 5.17581 10.1334 7.63642 7.65461C10.097 5.17578 13.4333 3.78152 16.9131 3.77777Z" fill="#4B4A4B"/>
</svg>
