<svg width="32" height="32" viewBox="0 0 32 32" fill="none" xmlns="http://www.w3.org/2000/svg">
<path d="M0.000920682 15.9969C0.00160108 12.4744 1.16469 9.0505 3.30975 6.25645C5.45482 3.4624 8.46196 1.45435 11.8647 0.543796C15.2674 -0.366757 18.8755 -0.128909 22.1293 1.22044C25.383 2.56979 28.1005 4.95522 29.8603 8.00667C31.62 11.0581 32.3236 14.605 31.8619 18.0972C31.4002 21.5893 29.799 24.8315 27.3067 27.3208C24.8144 29.81 21.5704 31.4072 18.0777 31.8646C14.5851 32.3219 11.0392 31.6138 7.99002 29.8502L1.75554 31.9302C1.5252 32.0071 1.27824 32.0197 1.0413 31.9665C0.804364 31.9133 0.586449 31.7964 0.411075 31.6284C0.235701 31.4605 0.109529 31.2478 0.0461756 31.0134C-0.0171781 30.7789 -0.0153074 30.5317 0.051586 30.2982L1.9502 23.6556C0.670288 21.3058 8.64505e-05 18.6726 0.000920682 15.9969ZM18.0004 23.3302C18.0004 22.7998 17.7897 22.2911 17.4146 21.916C17.0396 21.5409 16.5309 21.3302 16.0004 21.3302C15.47 21.3302 14.9613 21.5409 14.5863 21.916C14.2112 22.2911 14.0005 22.7998 14.0005 23.3302C14.0005 23.8607 14.2112 24.3694 14.5863 24.7444C14.9613 25.1195 15.47 25.3302 16.0004 25.3302C16.5309 25.3302 17.0396 25.1195 17.4146 24.7444C17.7897 24.3694 18.0004 23.8607 18.0004 23.3302ZM17.3124 7.75691C17.253 7.42905 17.0731 7.1353 16.808 6.9335C16.5429 6.73169 16.2118 6.63647 15.88 6.66658C15.5482 6.69668 15.2396 6.84993 15.0152 7.09615C14.7907 7.34237 14.6665 7.66372 14.6672 7.99691V17.3302L14.6885 17.5702C14.7478 17.8981 14.9278 18.1918 15.1929 18.3936C15.458 18.5954 15.7891 18.6907 16.1209 18.6606C16.4527 18.6305 16.7613 18.4772 16.9857 18.231C17.2102 17.9848 17.3344 17.6634 17.3337 17.3302V7.99691L17.3124 7.75691Z" fill="white"/>
</svg>
