<svg width="33" height="21" viewBox="0 0 33 21" fill="none" xmlns="http://www.w3.org/2000/svg">
<path d="M20.9136 19.0336C21.0151 19.1892 21.0727 19.3693 21.0802 19.5549C21.0878 19.7405 21.0451 19.9247 20.9566 20.088C20.8681 20.2514 20.7372 20.3878 20.5776 20.4828C20.418 20.5779 20.2357 20.6281 20.05 20.6281H1.03112C0.845365 20.6281 0.663061 20.5779 0.503472 20.4828C0.343884 20.3878 0.212937 20.2514 0.124468 20.088C0.0359977 19.9247 -0.00671017 19.7405 0.000855943 19.5549C0.00842206 19.3693 0.0659812 19.1892 0.167452 19.0336C1.61907 16.7991 3.75426 15.094 6.25441 14.1725C4.87227 13.2524 3.82294 11.9119 3.26159 10.3492C2.70023 8.78658 2.65666 7.08477 3.13731 5.49545C3.61796 3.90613 4.59732 2.51368 5.93056 1.52401C7.26379 0.534343 8.88013 0 10.5405 0C12.2009 0 13.8173 0.534343 15.1505 1.52401C16.4838 2.51368 17.4631 3.90613 17.9438 5.49545C18.4244 7.08477 18.3808 8.78658 17.8195 10.3492C17.2581 11.9119 16.2088 13.2524 14.8267 14.1725C17.3268 15.094 19.462 16.7991 20.9136 19.0336ZM32.2458 19.0142C30.7938 16.7892 28.6633 15.0914 26.1704 14.1725C27.8021 13.0734 28.9536 11.3938 29.3906 9.47561C29.8275 7.55742 29.5171 5.5448 28.5225 3.84741C27.5278 2.15003 25.9237 0.895477 24.0367 0.339106C22.1497 -0.217265 20.1216 -0.0336312 18.3651 0.85263C18.298 0.887308 18.2393 0.936328 18.1932 0.996218C18.147 1.05611 18.1147 1.12541 18.0983 1.1992C18.0819 1.273 18.082 1.34948 18.0985 1.42325C18.115 1.49702 18.1475 1.56626 18.1937 1.62607C19.4997 3.2552 20.2498 5.25973 20.334 7.34604C20.4182 9.43236 19.8321 11.4908 18.6616 13.2199C18.586 13.3329 18.558 13.4712 18.5839 13.6047C18.6097 13.7382 18.6872 13.8561 18.7996 13.9327C20.3257 14.9978 21.6322 16.3472 22.6474 17.9069C23.0569 18.534 23.2241 19.2887 23.1179 20.03C23.106 20.1038 23.1102 20.1792 23.1303 20.2512C23.1504 20.3231 23.1859 20.3899 23.2343 20.4468C23.2827 20.5036 23.3429 20.5493 23.4107 20.5806C23.4786 20.612 23.5524 20.6282 23.6271 20.6281H31.4001C31.6272 20.6282 31.848 20.5533 32.0282 20.4151C32.2083 20.2769 32.3378 20.0831 32.3966 19.8637C32.4324 19.7195 32.4375 19.5693 32.4116 19.4229C32.3856 19.2766 32.3291 19.1373 32.2458 19.0142Z" fill="white"/>
</svg>
