<svg width="30" height="32" viewBox="0 0 30 32" fill="none" xmlns="http://www.w3.org/2000/svg">
<path d="M15 0C13.075 0 11.2289 0.767196 9.86777 2.13281C8.50662 3.49843 7.74194 5.35061 7.74194 7.28189C7.74194 9.21316 8.50662 11.0653 9.86777 12.431C11.2289 13.7966 13.075 14.5638 15 14.5638C16.925 14.5638 18.7711 13.7966 20.1322 12.431C21.4934 11.0653 22.2581 9.21316 22.2581 7.28189C22.2581 5.35061 21.4934 3.49843 20.1322 2.13281C18.7711 0.767196 16.925 0 15 0ZM7.25806 18.4474C5.33311 18.4474 3.48699 19.2146 2.12584 20.5803C0.764687 21.9459 0 23.7981 0 25.7293V28.0362C0 29.5004 1.05677 30.747 2.49677 30.982C10.7768 32.3393 19.2232 32.3393 27.5032 30.982C28.1996 30.867 28.8328 30.5079 29.29 29.9685C29.7472 29.429 29.9988 28.7443 30 28.0362V25.7293C30 23.7981 29.2353 21.9459 27.8742 20.5803C26.513 19.2146 24.6669 18.4474 22.7419 18.4474H22.0839C21.7226 18.4487 21.3716 18.5044 21.031 18.6144L19.3548 19.164C16.5251 20.0908 13.4749 20.0908 10.6452 19.164L8.96903 18.6144C8.6293 18.5051 8.27484 18.4488 7.91806 18.4474H7.25806Z" fill="white"/>
</svg>
